<?xml version="1.0" standalone="no"?>
<!DOCTYPE svg PUBLIC "-//W3C//DTD SVG 20010904//EN"
 "http://www.w3.org/TR/2001/REC-SVG-20010904/DTD/svg10.dtd">
<svg version="1.0" xmlns="http://www.w3.org/2000/svg"
 width="316.000000pt" height="316.000000pt" viewBox="0 0 316.000000 316.000000"
 preserveAspectRatio="xMidYMid meet">
<metadata>
Created by potrace 1.11, written by Peter Selinger 2001-2013
</metadata>
<g transform="translate(0.000000,316.000000) scale(0.100000,-0.100000)"
fill="#000000" stroke="none">
<path d="M328 3150 c-79 -14 -158 -71 -210 -151 -9 -14 -21 -52 -27 -84 -16
-84 -15 -2594 0 -2667 29 -134 109 -212 244 -237 90 -17 836 -15 900 3 100 26
164 76 206 162 24 49 24 52 27 421 l3 372 702 3 702 3 52 24 c29 13 69 41 89
63 70 78 69 69 69 508 0 457 -2 469 -81 539 -93 81 -33 76 -826 79 l-707 3 -4
367 c-3 281 -7 376 -17 406 -21 57 -100 139 -162 167 -53 24 -53 24 -483 26
-236 0 -451 -2 -477 -7z m893 -205 c16 -9 34 -27 39 -41 6 -14 10 -175 10
-370 l0 -344 -160 0 -160 0 0 170 c0 168 0 171 -25 195 -23 24 -29 25 -154 25
-128 0 -130 0 -150 -27 l-21 -26 2 -958 c3 -945 3 -958 23 -973 15 -12 49 -15
146 -16 113 0 129 2 153 21 l26 20 0 175 0 174 160 0 160 0 0 -356 0 -356 -30
-29 -29 -30 -440 3 -440 3 -23 23 -23 23 -3 1312 c-2 973 1 1319 9 1340 23 56
27 56 482 57 358 0 422 -2 448 -15z m1640 -974 l24 -19 0 -370 0 -370 -25 -21
c-25 -20 -28 -20 -968 -21 -1019 0 -991 -1 -1006 52 -3 13 -6 179 -6 369 0
362 0 363 45 387 14 8 301 11 966 12 918 0 948 -1 970 -19z"/>
<path d="M1820 1841 c0 -13 -10 -20 -31 -25 -17 -3 -44 -20 -60 -37 -26 -27
-29 -38 -29 -93 0 -57 3 -65 33 -93 17 -18 44 -36 60 -42 26 -10 27 -14 27
-73 l-1 -63 -28 33 c-19 23 -36 32 -57 32 -52 0 -59 -12 -36 -63 21 -47 48
-71 95 -82 22 -6 27 -13 27 -36 0 -24 4 -29 25 -29 20 0 25 5 25 25 0 19 9 29
39 44 21 11 50 34 65 51 22 26 26 41 26 92 0 55 -3 63 -34 94 -19 19 -48 37
-65 40 -30 6 -31 8 -31 60 0 51 14 72 26 39 7 -17 60 -20 84 -5 26 16 -14 76
-66 97 -28 12 -44 24 -44 36 0 11 -8 17 -25 17 -18 0 -25 -5 -25 -19z m0 -147
c0 -32 -4 -44 -12 -42 -21 7 -33 55 -18 72 21 27 30 18 30 -30z m85 -194 c21
-23 14 -64 -14 -79 -16 -9 -18 -5 -20 44 -2 59 6 66 34 35z"/>
</g>
</svg>
